<?xml version="1.0" encoding="utf-8"?>
<!-- Generator: Adobe Illustrator 23.0.1, SVG Export Plug-In . SVG Version: 6.00 Build 0)  -->
<svg version="1.1" id="Layer_1" xmlns="http://www.w3.org/2000/svg" xmlns:xlink="http://www.w3.org/1999/xlink" x="0px" y="0px"
	 viewBox="0 0 328.1 125.8" style="enable-background:new 0 0 328.1 125.8;" xml:space="preserve">
<style type="text/css">
	.st0{fill:#CE232A;stroke:#FFFFFF;stroke-width:1.8075;}
</style>
<path class="st0" d="M88.4,27.9h25.4v13.3c-2.6,2.1-2.9,5.5-3.5,8.7l-9.9,53.2H77.8l-6.6-35.9H71l-7.3,35.9h-22L31.7,50
	c-0.6-3.1-1.2-6.8-3.9-8.7V27.9h29.3v13.3c-1.7,0.7-2.5,2.2-2.5,4l3,23.8h0.2l7.9-41.1h14.4l8.2,41h0.2l2.4-23.6
	c0-1.8-0.8-3.3-2.5-4C88.4,41.3,88.4,27.9,88.4,27.9z M137.3,48.5c0-0.5-0.3-5.8,4.6-5.8c4.8,0,4.6,5.3,4.6,5.8v34
	c0,0.5,0.3,5.9-4.6,5.9c-4.8,0-4.6-5.4-4.6-5.9V48.5z M169.8,49.7c0-18.6-11.4-23.2-28-23.2s-28,4.6-28,23.2v31.7
	c0,18.6,11.4,23.2,28,23.2s28-4.7,28-23.2V49.7z M196,48.5c0-0.5-0.3-5.8,4.6-5.8s4.6,5.3,4.6,5.8v34c0,0.5,0.3,5.9-4.6,5.9
	S196,83,196,82.5V48.5z M228.6,49.7c0-18.6-11.4-23.2-28-23.2s-28,4.6-28,23.2v31.7c0,18.6,11.4,23.2,28,23.2s28-4.7,28-23.2V49.7z
	 M256.3,44.3h1.8c5.1,0,6.7,1.8,6.7,7.3V80c0,5.4-1.6,7.3-6.7,7.3h-1.8C256.3,87.3,256.3,44.3,256.3,44.3z M229.9,27.9v13.3
	c2.7,1.1,2.9,3.3,3,6v36.6c-0.1,2.5-0.3,4.8-3,6v13.3h33.2c7.1,0,13.8-0.4,19.1-5.5c5.7-5.4,6.1-11.1,6.1-18.4V51
	c0-7.2-0.6-14-6.8-18.9c-5.4-4.1-12.7-4.2-19.1-4.2L229.9,27.9L229.9,27.9z"/>
<path d="M285.1,104.5c0-1.8,1.4-3.3,3.2-3.3c1.8,0,3.2,1.4,3.2,3.3s-1.4,3.3-3.2,3.3C286.5,107.8,285.1,106.4,285.1,104.5z
	 M284.4,104.5c0,2.2,1.8,3.9,3.9,3.9s3.9-1.7,3.9-3.9s-1.8-3.8-3.9-3.8C286.1,100.6,284.4,102.3,284.4,104.5z M286.8,106.7h0.7v-1.9
	h0.7l1.2,1.9h0.8l-1.3-2c0.7-0.1,1.2-0.4,1.2-1.2c0-0.9-0.5-1.3-1.6-1.3h-1.7L286.8,106.7L286.8,106.7z M287.5,102.8h0.9
	c0.5,0,1,0.1,1,0.7c0,0.7-0.6,0.7-1.2,0.7h-0.7L287.5,102.8L287.5,102.8z"/>
</svg>
